# xmcd
#
# Track frame offsets:
# 150
# 17015
# 31557
# 48067
# 60320
# 76827
# 93187
# 113522
# 130777
# 144810
# 157230
# 171250
# 186590
# 203740
# 220170
#
# Disc length: 3134 seconds
#
#
# Revision: 0
# Processed by: cddbd v1.5.2PL0 Copyright (c) Steve Scherf et al.
# Submitted via: FreeRIP 2.941 
#
DISCID=b60c3c0f
DTITLE=Ronaldo Viola e João Carvalho - 
DYEAR=2001
DGENRE=Country
TTITLE0=Prisioneiro
TTITLE1=Batidão Lascado
TTITLE2=Entre rodeio e você
TTITLE3=Rodeio univesitário
TTITLE4=Dom divino
TTITLE5=Enxugue o pranto
TTITLE6=Princesa morena
TTITLE7=Estou ficando por aqui
TTITLE8=Janela da solidão
TTITLE9=Guerreiro da poesia
TTITLE10=Quase duzentos por hora
TTITLE11=Gaiteiro velho
TTITLE12=Nas grades do tempo
TTITLE13="Bsurdo" de bão
TTITLE14=Caboclinho Valente
EXTD=
EXTT0=
EXTT1=
EXTT2=
EXTT3=
EXTT4=
EXTT5=
EXTT6=
EXTT7=
EXTT8=
EXTT9=
EXTT10=
EXTT11=
EXTT12=
EXTT13=
EXTT14=
PLAYORDER=
